<svg width="18" height="19" viewBox="0 0 18 19" fill="none" xmlns="http://www.w3.org/2000/svg">
<path fill-rule="evenodd" clip-rule="evenodd" d="M14.25 8C14.25 8.41421 13.9142 8.75 13.5 8.75H7.5C7.08579 8.75 6.75 8.41421 6.75 8C6.75 7.58579 7.08579 7.25 7.5 7.25H13.5C13.9142 7.25 14.25 7.58579 14.25 8ZM13.5 10.25H7.5C7.08579 10.25 6.75 10.5858 6.75 11C6.75 11.4142 7.08579 11.75 7.5 11.75H13.5C13.9142 11.75 14.25 11.4142 14.25 11C14.25 10.5858 13.9142 10.25 13.5 10.25ZM18 2V17C18 17.8284 17.3284 18.5 16.5 18.5H1.5C0.671573 18.5 0 17.8284 0 17V2C0 1.17157 0.671573 0.5 1.5 0.5H16.5C17.3284 0.5 18 1.17157 18 2ZM1.5 17H3.75V2H1.5V17ZM16.5 17V2H5.25V17H16.5Z" fill="#171412"/>
</svg>
