<svg width="20" height="21" viewBox="0 0 20 21" fill="none" xmlns="http://www.w3.org/2000/svg">
<path fill-rule="evenodd" clip-rule="evenodd" d="M10 0.75C4.61522 0.75 0.25 5.11522 0.25 10.5C0.25 15.8848 4.61522 20.25 10 20.25C15.3848 20.25 19.75 15.8848 19.75 10.5C19.7443 5.11758 15.3824 0.755684 10 0.75ZM10 18.75C5.44365 18.75 1.75 15.0563 1.75 10.5C1.75 5.94365 5.44365 2.25 10 2.25C14.5563 2.25 18.25 5.94365 18.25 10.5C18.2448 15.0542 14.5542 18.7448 10 18.75ZM11.5 15C11.5 15.4142 11.1642 15.75 10.75 15.75C9.92157 15.75 9.25 15.0784 9.25 14.25V10.5C8.83579 10.5 8.5 10.1642 8.5 9.75C8.5 9.33579 8.83579 9 9.25 9C10.0784 9 10.75 9.67157 10.75 10.5V14.25C11.1642 14.25 11.5 14.5858 11.5 15ZM8.5 6.375C8.5 5.75368 9.00368 5.25 9.625 5.25C10.2463 5.25 10.75 5.75368 10.75 6.375C10.75 6.99632 10.2463 7.5 9.625 7.5C9.00368 7.5 8.5 6.99632 8.5 6.375Z" fill="#171412"/>
</svg>
