<svg width="20" height="21" viewBox="0 0 20 21" fill="none" xmlns="http://www.w3.org/2000/svg">
<path fill-rule="evenodd" clip-rule="evenodd" d="M19.3744 18.9694L14.6803 14.2762C17.5067 10.883 17.1642 5.86693 13.9029 2.88935C10.6416 -0.0882368 5.61509 0.0259986 2.49242 3.14867C-0.630251 6.27134 -0.744487 11.2978 2.2331 14.5591C5.21068 17.8204 10.2268 18.1629 13.62 15.3366L18.3131 20.0306C18.6062 20.3237 19.0813 20.3237 19.3744 20.0306C19.6674 19.7376 19.6674 19.2624 19.3744 18.9694ZM1.59375 9C1.59375 5.27208 4.61583 2.25 8.34375 2.25C12.0717 2.25 15.0938 5.27208 15.0938 9C15.0938 12.7279 12.0717 15.75 8.34375 15.75C4.61754 15.7459 1.59788 12.7262 1.59375 9Z" fill="#8A7861"/>
</svg>
